<svg class="nav--logo" fill="none" viewBox="0 0 120 31" width="100%" xmlns="http://www.w3.org/2000/svg"><path clip-rule="evenodd" d="M75.1055 4.5H75.3498H77.9038H78.1481V4.74083V17.492V20.5489V24.3251V24.5659H77.9038H75.3498H75.1055V24.3251V4.74083V4.5ZM25.4577 21.8382V11.3059H28.6958V8.56846H25.1938C25.4 8.3147 25.5648 8.03088 25.6825 7.72716C25.9023 7.17646 26.0196 6.47164 26.0082 5.52438V4.50007H23.0764V5.55969C23.0958 6.16112 22.9725 6.75871 22.7164 7.30491C22.3336 8.07877 21.5176 8.93451 19.7438 9.34553L19.5549 9.39049V11.3059H22.3857V22.5575C22.3875 23.0898 22.6026 23.5998 22.9844 23.9764C23.3661 24.3529 23.8833 24.5655 24.4234 24.5676H28.743V21.8382H25.4593H25.4577ZM50.4436 11.2256C51.6261 9.56229 53.1963 8.58933 55.0955 8.58933H56.6136V11.4985H54.7616C53.465 11.4985 52.4226 11.9144 51.6848 12.791C50.9469 13.6676 50.5055 15.0355 50.5055 16.983V24.5676H47.401V8.58933H50.4436V11.2256ZM116.679 8.58933H119.649L120 8.60056L119.872 8.92166L112.119 28.7339L111.93 28.6617L111.952 28.6713L112.115 28.7339C111.896 29.2467 111.531 29.6861 111.064 29.9994C110.598 30.3127 110.049 30.4865 109.485 30.5H106.048V27.7995H109.379L110.773 24.3235L104.696 8.91043L104.567 8.58933H107.988L108.047 8.74988L112.322 20.5216L116.622 8.74988L116.679 8.58933ZM41.2327 8.58933H41.477H44.3046V24.5724H41.3842V22.6008C40.231 24.1839 38.5354 24.932 36.4587 24.932C34.3445 24.932 32.8997 24.3219 32.0136 23.2591C31.1276 22.1962 30.8018 20.7127 30.8018 19.0253V8.58933H33.8754V19.3191C33.8754 20.2118 34.1604 20.9262 34.6588 21.4159C35.1572 21.9056 35.8886 22.1962 36.8235 22.1962C38.3318 22.1962 39.4198 21.7033 40.1414 20.8941C40.863 20.0849 41.2327 18.9338 41.2327 17.5803V8.58933ZM96.7963 8.22963C94.498 8.22963 92.6037 9.06451 91.2876 10.5416C89.9715 12.0187 89.2532 14.1059 89.2532 16.5928C89.2532 19.0798 89.9976 21.1815 91.3349 22.6441C92.6721 24.1067 94.5925 24.9272 96.8875 24.9272C98.7134 24.9272 100.282 24.4102 101.508 23.4581C102.735 22.506 103.603 21.1333 104.056 19.4443L104.137 19.1408H100.973L100.914 19.3014C100.217 21.1943 98.7818 22.2299 96.8875 22.2299C95.5258 22.2299 94.4768 21.7257 93.7308 20.8812C93.0256 20.0785 92.5826 18.9642 92.4197 17.6461H104.16L104.185 17.4325C104.211 17.1545 104.221 16.8752 104.216 16.5961C104.216 14.1123 103.528 12.0203 102.246 10.5464C100.964 9.07252 99.0945 8.22963 96.7963 8.22963ZM92.5272 14.8829C92.7438 13.7591 93.1933 12.7845 93.8595 12.0909C94.2367 11.7015 94.6924 11.3943 95.1974 11.1891C95.7024 10.9839 96.2454 10.8853 96.7914 10.8996C97.311 10.8869 97.8277 10.9793 98.3095 11.1713C98.7914 11.3632 99.2282 11.6505 99.593 12.0155C100.261 12.6882 100.733 13.6595 100.968 14.8829H92.5272ZM66.6796 8.22963C64.6029 8.22963 62.9073 8.97781 61.7541 10.5609V8.58927H58.8336V24.5675H61.9056V15.5765C61.9056 14.2231 62.2753 13.0719 62.9969 12.2611C63.7184 11.4503 64.8065 10.9606 66.3148 10.9606C67.2497 10.9606 67.981 11.2512 68.4795 11.7409C68.9779 12.2306 69.2629 12.9451 69.2629 13.8377V24.5691H72.3365V14.1332C72.3365 12.4474 72.0107 10.9639 71.1246 9.90099C70.2386 8.83813 68.7938 8.22963 66.6796 8.22963ZM90.1708 8.6305L82.1023 16.5877L90.165 24.5406L86.0935 24.5321L80.203 18.7229C79.6292 18.1567 79.3068 17.3889 79.3068 16.5884C79.3068 15.7878 79.6292 15.0201 80.203 14.4539L86.1078 8.6305H90.1708Z" fill="currentColor" fill-rule="evenodd"></path><path clip-rule="evenodd" d="M9.7381 8.21527C9.7381 10.2672 8.05309 11.9305 5.97452 11.9305C3.89595 11.9305 2.21094 10.2672 2.21094 8.21527C2.21094 6.16338 3.89595 4.5 5.97452 4.5C8.05309 4.5 9.7381 6.16338 9.7381 8.21527ZM11.9515 25.3055L6.59425 13.7254C6.53986 13.6086 6.45268 13.5097 6.34305 13.4403C6.23342 13.3709 6.10594 13.3341 5.97573 13.3341C5.84552 13.3341 5.71804 13.3709 5.60841 13.4403C5.49878 13.5097 5.41161 13.6086 5.35722 13.7254L0 25.3055H11.9515Z" fill="currentColor" fill-rule="evenodd"></path></svg>